<svg xmlns="http://www.w3.org/2000/svg" viewBox="0 0 1200 800">
  <defs>
    <linearGradient id="bg" x1="0" y1="0" x2="1" y2="1">
      <stop offset="0%" stop-color="#09121a" />
      <stop offset="100%" stop-color="#102533" />
    </linearGradient>
    <linearGradient id="screen" x1="0" y1="0" x2="0" y2="1">
      <stop offset="0%" stop-color="#0d1d26" />
      <stop offset="100%" stop-color="#122a34" />
    </linearGradient>
  </defs>
  <rect width="1200" height="800" rx="40" fill="url(#bg)" />
  <g transform="translate(140 120)">
    <rect width="920" height="560" rx="40" fill="url(#screen)" stroke="#27d18f" stroke-opacity="0.22" stroke-width="6" />
    <rect x="40" y="40" width="380" height="220" rx="24" fill="#0b2230" />
    <rect x="70" y="80" width="180" height="40" rx="16" fill="#1da98d" />
    <rect x="70" y="140" width="320" height="18" rx="9" fill="#0f3b52" />
    <rect x="70" y="180" width="280" height="18" rx="9" fill="#0f3b52" />
    <g transform="translate(90 72)">
      <path d="M46 13c0-12 9-22 21-22s21 10 21 22c0 22-21 44-21 44S46 35 46 13Z" fill="#ffc43d" />
      <path d="M86 14c0-12-9-22-21-22s-21 10-21 22c0 22 21 44 21 44s21-22 21-44Z" fill="#1e7fe5" />
    </g>
    <rect x="460" y="80" width="360" height="240" rx="24" fill="#0d2737" />
    <rect x="500" y="120" width="260" height="18" rx="9" fill="#1fb78f" />
    <rect x="500" y="160" width="220" height="18" rx="9" fill="#214a70" />
    <rect x="500" y="200" width="180" height="18" rx="9" fill="#214a70" />
    <rect x="500" y="260" width="320" height="28" rx="14" fill="#1e9c7e" />
    <g transform="translate(520 300)">
      <rect x="0" y="0" width="180" height="18" rx="9" fill="#163647" />
      <rect x="0" y="40" width="140" height="18" rx="9" fill="#163647" />
      <rect x="0" y="80" width="180" height="18" rx="9" fill="#163647" />
    </g>
    <g transform="translate(520 340)">
      <rect x="0" y="0" width="80" height="160" rx="14" fill="#1f7e65" />
      <rect x="90" y="40" width="80" height="120" rx="14" fill="#18af94" />
      <rect x="180" y="80" width="80" height="80" rx="14" fill="#14c69e" />
    </g>
    <rect x="120" y="320" width="680" height="170" rx="28" fill="#0f2841" />
    <rect x="140" y="350" width="120" height="22" rx="11" fill="#1f8a72" />
    <rect x="140" y="390" width="560" height="18" rx="9" fill="#163447" />
    <rect x="140" y="430" width="460" height="18" rx="9" fill="#163447" />
    <rect x="140" y="470" width="520" height="18" rx="9" fill="#163447" />
  </g>
  <rect x="220" y="700" width="760" height="48" rx="24" fill="#0f1d27" />
  <rect x="320" y="620" width="560" height="40" rx="20" fill="#0b2634" />
</svg>