<svg xmlns="http://www.w3.org/2000/svg" viewBox="0 0 1200 800">
  <defs>
    <linearGradient id="bg3" x1="0" y1="0" x2="1" y2="1">
      <stop offset="0%" stop-color="#041127" />
      <stop offset="100%" stop-color="#11203d" />
    </linearGradient>
    <linearGradient id="grid" x1="0" y1="0" x2="0" y2="1">
      <stop offset="0%" stop-color="#0b1935" />
      <stop offset="100%" stop-color="#081426" />
    </linearGradient>
  </defs>
  <rect width="1200" height="800" rx="40" fill="url(#bg3)" />
  <g transform="translate(140 120)">
    <rect width="920" height="560" rx="40" fill="url(#grid)" stroke="#62ccff" stroke-opacity="0.16" stroke-width="6" />
    <g stroke="#1c5d98" stroke-width="4" opacity="0.6">
      <path d="M80 80H840" />
      <path d="M80 140H840" />
      <path d="M80 200H840" />
      <path d="M80 260H840" />
      <path d="M80 320H840" />
      <path d="M80 380H840" />
      <path d="M80 440H840" />
      <path d="M80 500H840" />
      <path d="M80 560H840" />
      <path d="M140 20V580" />
      <path d="M200 20V580" />
      <path d="M260 20V580" />
      <path d="M320 20V580" />
      <path d="M380 20V580" />
      <path d="M440 20V580" />
      <path d="M500 20V580" />
      <path d="M560 20V580" />
      <path d="M620 20V580" />
      <path d="M680 20V580" />
      <path d="M740 20V580" />
      <path d="M800 20V580" />
    </g>
    <g fill="#2bcf80" stroke="#77ffd4" stroke-width="2">
      <rect x="220" y="240" width="60" height="60" rx="12" />
      <rect x="280" y="240" width="60" height="60" rx="12" />
      <rect x="340" y="240" width="60" height="60" rx="12" />
      <rect x="400" y="240" width="60" height="60" rx="12" />
      <rect x="460" y="240" width="60" height="60" rx="12" />
      <rect x="520" y="240" width="60" height="60" rx="12" />
      <rect x="580" y="240" width="60" height="60" rx="12" />
      <rect x="580" y="180" width="60" height="60" rx="12" />
      <rect x="640" y="180" width="60" height="60" rx="12" />
    </g>
    <circle cx="760" cy="220" r="18" fill="#ff5757" stroke="#ff9a9a" stroke-width="4" />
    <rect x="70" y="30" width="260" height="90" rx="24" fill="#0f2142" />
    <text x="100" y="78" fill="#89d5ff" font-size="40" font-family="Inter, sans-serif" font-weight="700">SCORE</text>
    <text x="100" y="118" fill="#cbe9ff" font-size="32" font-family="Inter, sans-serif" font-weight="600">012300</text>
    <rect x="70" y="460" width="220" height="150" rx="24" fill="#0b1732" />
    <text x="110" y="515" fill="#d6f7ff" font-size="32" font-family="Inter, sans-serif" font-weight="700">Nível 4</text>
    <text x="110" y="560" fill="#a2d8ff" font-size="24" font-family="Inter, sans-serif">Velocidade média</text>
  </g>
</svg>