<svg xmlns="http://www.w3.org/2000/svg" viewBox="0 0 1200 800">
  <defs>
    <linearGradient id="bg2" x1="0" y1="0" x2="1" y2="1">
      <stop offset="0%" stop-color="#120b1e" />
      <stop offset="100%" stop-color="#161f3e" />
    </linearGradient>
    <linearGradient id="panel" x1="0" y1="0" x2="0" y2="1">
      <stop offset="0%" stop-color="#0f1b32" />
      <stop offset="100%" stop-color="#14284b" />
    </linearGradient>
  </defs>
  <rect width="1200" height="800" rx="40" fill="url(#bg2)" />
  <g transform="translate(120 100)">
    <rect width="960" height="600" rx="40" fill="url(#panel)" stroke="#7651f5" stroke-opacity="0.18" stroke-width="6" />
    <rect x="60" y="60" width="380" height="220" rx="24" fill="#162443" />
    <rect x="90" y="100" width="300" height="26" rx="13" fill="#3f5af8" />
    <rect x="90" y="150" width="320" height="18" rx="9" fill="#1c345a" />
    <rect x="90" y="190" width="260" height="18" rx="9" fill="#1c345a" />
    <rect x="90" y="230" width="330" height="18" rx="9" fill="#1c345a" />
    <rect x="520" y="70" width="340" height="240" rx="24" fill="#15264a" />
    <rect x="560" y="110" width="160" height="26" rx="13" fill="#8a6cff" />
    <rect x="560" y="155" width="220" height="18" rx="9" fill="#21386a" />
    <rect x="560" y="190" width="180" height="18" rx="9" fill="#21386a" />
    <rect x="560" y="225" width="240" height="18" rx="9" fill="#21386a" />
    <rect x="520" y="340" width="300" height="200" rx="24" fill="#10203c" />
    <g transform="translate(560 380)">
      <rect x="0" y="0" width="40" height="16" rx="8" fill="#9275ff" />
      <rect x="0" y="32" width="220" height="14" rx="7" fill="#1d355c" />
      <rect x="0" y="56" width="260" height="14" rx="7" fill="#1d355c" />
      <rect x="0" y="80" width="200" height="14" rx="7" fill="#1d355c" />
    </g>
    <rect x="70" y="320" width="420" height="240" rx="30" fill="#14263d" />
    <rect x="100" y="360" width="320" height="40" rx="20" fill="#3a73ff" />
    <rect x="100" y="420" width="280" height="18" rx="9" fill="#1c345d" />
    <rect x="100" y="450" width="320" height="18" rx="9" fill="#1c345d" />
    <rect x="100" y="480" width="260" height="18" rx="9" fill="#1c345d" />
    <g transform="translate(560 350)">
      <rect x="0" y="0" width="76" height="76" rx="18" fill="#5fb2ff" />
      <rect x="90" y="20" width="60" height="96" rx="18" fill="#4c8afc" />
      <rect x="180" y="60" width="80" height="56" rx="18" fill="#1e72e4" />
    </g>
    <rect x="520" y="560" width="320" height="46" rx="23" fill="#122444" />
  </g>
</svg>